<?xml version="1.0" standalone="no"?><svg xmlns="http://www.w3.org/2000/svg" viewBox="0 0 1440 320"><path fill="#82A0D8" fill-opacity="1" d="M0,32L24,48C48,64,96,96,144,138.7C192,181,240,235,288,229.3C336,224,384,160,432,160C480,160,528,224,576,218.7C624,213,672,139,720,90.7C768,43,816,21,864,42.7C912,64,960,128,1008,165.3C1056,203,1104,213,1152,192C1200,171,1248,117,1296,85.3C1344,53,1392,43,1416,37.3L1440,32L1440,320L1416,320C1392,320,1344,320,1296,320C1248,320,1200,320,1152,320C1104,320,1056,320,1008,320C960,320,912,320,864,320C816,320,768,320,720,320C672,320,624,320,576,320C528,320,480,320,432,320C384,320,336,320,288,320C240,320,192,320,144,320C96,320,48,320,24,320L0,320Z"></path></svg>